<?xml version="1.0" encoding="UTF-8" standalone="no"?>
<!-- Created with Inkscape (http://www.inkscape.org/) -->

<svg
   xmlns:dc="http://purl.org/dc/elements/1.1/"
   xmlns:cc="http://creativecommons.org/ns#"
   xmlns:rdf="http://www.w3.org/1999/02/22-rdf-syntax-ns#"
   xmlns:svg="http://www.w3.org/2000/svg"
   xmlns="http://www.w3.org/2000/svg"
   xmlns:sodipodi="http://sodipodi.sourceforge.net/DTD/sodipodi-0.dtd"
   xmlns:inkscape="http://www.inkscape.org/namespaces/inkscape"
   width="136.76094"
   height="21.394005"
   id="svg5198"
   version="1.1"
   inkscape:version="0.48.5 r10040"
   sodipodi:docname="quality7pt_scale.svg">
  <defs
     id="defs5200" />
  <sodipodi:namedview
     id="base"
     pagecolor="#ffffff"
     bordercolor="#666666"
     borderopacity="1.0"
     inkscape:pageopacity="0.0"
     inkscape:pageshadow="2"
     inkscape:zoom="5.6568545"
     inkscape:cx="35.61068"
     inkscape:cy="47.451251"
     inkscape:document-units="px"
     inkscape:current-layer="layer4"
     showgrid="true"
     inkscape:snap-global="false"
     objecttolerance="10000"
     guidetolerance="10000"
     inkscape:window-width="1280"
     inkscape:window-height="734"
     inkscape:window-x="0"
     inkscape:window-y="27"
     inkscape:window-maximized="1"
     fit-margin-top="5"
     fit-margin-left="5"
     fit-margin-right="5"
     fit-margin-bottom="5">
    <inkscape:grid
       type="xygrid"
       id="grid5743"
       empspacing="5"
       visible="true"
       enabled="true"
       snapvisiblegridlinesonly="true"
       originx="-12.104855px"
       originy="-0.92806852px" />
  </sodipodi:namedview>
  <metadata
     id="metadata5203">
    <rdf:RDF>
      <cc:Work
         rdf:about="">
        <dc:format>image/svg+xml</dc:format>
        <dc:type
           rdf:resource="http://purl.org/dc/dcmitype/StillImage" />
        <dc:title />
      </cc:Work>
    </rdf:RDF>
  </metadata>
  <g
     inkscape:label="Scale"
     inkscape:groupmode="layer"
     id="layer1"
     transform="translate(-12.104855,-1030.0402)"
     style="display:inline">
    <rect
       style="fill:#000000;fill-opacity:1"
       id="rect5206"
       width="103"
       height="1"
       x="30"
       y="1036.3621" />
    <rect
       style="opacity:0;fill:#000000;fill-opacity:1"
       id="rect5763"
       width="1.000026"
       height="2.0999999"
       x="25"
       y="1037.2622" />
    <rect
       style="opacity:0;fill:#000000;fill-opacity:1"
       id="rect5765"
       width="1.000026"
       height="2.0999999"
       x="29.000103"
       y="1037.2622" />
    <rect
       style="fill:#000000;fill-opacity:1"
       id="rect5765-9"
       width="1.000026"
       height="2.0999999"
       x="33.000206"
       y="1037.2622" />
    <rect
       style="fill:#000000;fill-opacity:1"
       id="rect5765-9-4"
       width="1"
       height="2.0999999"
       x="36.999847"
       y="1037.2622" />
    <rect
       style="fill:#000000;fill-opacity:1"
       id="rect5822"
       width="1.2"
       height="5"
       x="40.799999"
       y="1037.3622" />
    <rect
       style="fill:#000000;fill-opacity:1"
       id="rect5763-5"
       width="1.000026"
       height="2.0999999"
       x="45"
       y="1037.2622" />
    <rect
       style="fill:#000000;fill-opacity:1"
       id="rect5765-7"
       width="1.000026"
       height="2.0999999"
       x="49.000103"
       y="1037.2622" />
    <rect
       style="fill:#000000;fill-opacity:1"
       id="rect5765-9-9"
       width="1.000026"
       height="2.0999999"
       x="53.000206"
       y="1037.2622" />
    <rect
       style="fill:#000000;fill-opacity:1"
       id="rect5765-9-4-2"
       width="1"
       height="2.0999999"
       x="56.999847"
       y="1037.2622" />
    <rect
       style="fill:#000000;fill-opacity:1"
       id="rect5822-6"
       width="1.2"
       height="5"
       x="60.799999"
       y="1037.3622" />
    <rect
       style="fill:#000000;fill-opacity:1"
       id="rect5763-5-2"
       width="1.000026"
       height="2.0999999"
       x="65"
       y="1037.2622" />
    <rect
       style="fill:#000000;fill-opacity:1"
       id="rect5765-7-5"
       width="1.000026"
       height="2.0999999"
       x="69.000107"
       y="1037.2622" />
    <rect
       style="fill:#000000;fill-opacity:1"
       id="rect5765-9-9-0"
       width="1.000026"
       height="2.0999999"
       x="73.000206"
       y="1037.2622" />
    <rect
       style="fill:#000000;fill-opacity:1"
       id="rect5765-9-4-2-3"
       width="1"
       height="2.0999999"
       x="76.999847"
       y="1037.2622" />
    <rect
       style="fill:#000000;fill-opacity:1"
       id="rect5822-6-5"
       width="1.2"
       height="5"
       x="80.800003"
       y="1037.3622" />
    <rect
       style="fill:#000000;fill-opacity:1"
       id="rect5763-5-2-9"
       width="1.000026"
       height="2.0999999"
       x="85.000008"
       y="1037.2622" />
    <rect
       style="fill:#000000;fill-opacity:1"
       id="rect5765-7-5-9"
       width="1.000026"
       height="2.0999999"
       x="89.000114"
       y="1037.2622" />
    <rect
       style="fill:#000000;fill-opacity:1"
       id="rect5765-9-9-0-0"
       width="1.000026"
       height="2.0999999"
       x="93.000214"
       y="1037.2622" />
    <rect
       style="fill:#000000;fill-opacity:1"
       id="rect5765-9-4-2-3-5"
       width="1"
       height="2.0999999"
       x="96.999855"
       y="1037.2622" />
    <rect
       style="fill:#000000;fill-opacity:1"
       id="rect5822-6-5-4"
       width="1.2"
       height="5"
       x="100.8"
       y="1037.3622" />
    <rect
       style="fill:#000000;fill-opacity:1"
       id="rect5763-5-2-9-6"
       width="1.000026"
       height="2.0999999"
       x="105.00002"
       y="1037.2622" />
    <rect
       style="fill:#000000;fill-opacity:1"
       id="rect5765-7-5-9-9"
       width="1.000026"
       height="2.0999999"
       x="109.00013"
       y="1037.2622" />
    <rect
       style="fill:#000000;fill-opacity:1"
       id="rect5765-9-9-0-0-8"
       width="1.000026"
       height="2.0999999"
       x="113.00023"
       y="1037.2622" />
    <rect
       style="fill:#000000;fill-opacity:1"
       id="rect5765-9-4-2-3-5-0"
       width="1"
       height="2.0999999"
       x="116.99986"
       y="1037.2622" />
    <rect
       style="fill:#000000;fill-opacity:1"
       id="rect5822-6-5-4-7"
       width="1.2"
       height="5"
       x="120.8"
       y="1037.3622" />
    <rect
       style="fill:#000000;fill-opacity:1"
       id="rect5763-5-2-9-6-9"
       width="1.000026"
       height="2.0999999"
       x="125.00002"
       y="1037.2622" />
    <rect
       style="fill:#000000;fill-opacity:1"
       id="rect5765-7-5-9-9-9"
       width="1.000026"
       height="2.0999999"
       x="129.00012"
       y="1037.2622" />
    <rect
       style="opacity:0;fill:#000000;fill-opacity:1"
       id="rect5765-9-9-0-0-8-0"
       width="1.000026"
       height="2.0999999"
       x="133.00023"
       y="1037.2622" />
    <rect
       style="opacity:0;fill:#000000;fill-opacity:1"
       id="rect5765-9-4-2-3-5-0-5"
       width="1"
       height="2.0999999"
       x="136.99986"
       y="1037.2622" />
    <rect
       style="fill:#000000;fill-opacity:1"
       id="rect6036"
       width="8.8000002"
       height="0.40000001"
       x="21.204855"
       y="1036.6622" />
    <rect
       style="fill:#000000;fill-opacity:1"
       id="rect6036-5"
       width="0.3491767"
       height="5.4000001"
       x="21.206226"
       y="1036.9623" />
    <rect
       style="fill:#000000;fill-opacity:1"
       id="rect6036-2"
       width="8.8000002"
       height="0.40000001"
       x="-141.80486"
       y="1036.6621"
       transform="scale(-1,1)" />
    <rect
       style="fill:#000000;fill-opacity:1"
       id="rect6036-5-2"
       width="0.40000001"
       height="5.4000001"
       x="-141.80486"
       y="1036.9622"
       transform="scale(-1,1)" />
    <text
       xml:space="preserve"
       style="font-size:2px;font-style:normal;font-variant:normal;font-weight:normal;font-stretch:normal;text-align:center;line-height:100%;letter-spacing:0px;word-spacing:0px;writing-mode:lr-tb;text-anchor:middle;fill:#000000;fill-opacity:1;stroke:none;font-family:Sans;-inkscape-font-specification:Sans"
       x="21.174191"
       y="1044.4059"
       id="label10"
       sodipodi:linespacing="100%"
       inkscape:label=""><tspan
         sodipodi:role="line"
         id="tspan3851"
         x="21.174191"
         y="1044.4059">extrem</tspan><tspan
         sodipodi:role="line"
         x="21.174191"
         y="1046.4059"
         id="tspan3853">schlecht</tspan></text>
    <text
       xml:space="preserve"
       style="font-size:2px;font-style:normal;font-variant:normal;font-weight:normal;font-stretch:normal;text-align:center;line-height:100%;letter-spacing:0px;word-spacing:0px;writing-mode:lr-tb;text-anchor:middle;fill:#000000;fill-opacity:1;stroke:none;display:inline;font-family:Sans;-inkscape-font-specification:Sans"
       x="41.174191"
       y="1042.5059"
       id="label20"
       sodipodi:linespacing="100%"
       inkscape:label=""><tspan
         sodipodi:role="line"
         id="tspan3851-5"
         x="41.174191"
         y="1042.5059" /><tspan
         sodipodi:role="line"
         x="41.174191"
         y="1044.5059"
         id="tspan3853-8">schlecht</tspan></text>
    <text
       xml:space="preserve"
       style="font-size:2px;font-style:normal;font-variant:normal;font-weight:normal;font-stretch:normal;text-align:center;line-height:100%;letter-spacing:0px;word-spacing:0px;writing-mode:lr-tb;text-anchor:middle;fill:#000000;fill-opacity:1;stroke:none;display:inline;font-family:Sans;-inkscape-font-specification:Sans"
       x="61.267941"
       y="1042.6182"
       id="label30"
       sodipodi:linespacing="100%"
       inkscape:label=""><tspan
         sodipodi:role="line"
         id="tspan3851-5-5"
         x="61.267941"
         y="1042.6182" /><tspan
         sodipodi:role="line"
         x="61.267941"
         y="1044.6182"
         id="tspan3853-8-1">dürftig</tspan></text>
    <text
       xml:space="preserve"
       style="font-size:2px;font-style:normal;font-variant:normal;font-weight:normal;font-stretch:normal;text-align:center;line-height:100%;letter-spacing:0px;word-spacing:0px;writing-mode:lr-tb;text-anchor:middle;fill:#000000;fill-opacity:1;stroke:none;display:inline;font-family:Sans;-inkscape-font-specification:Sans"
       x="81.267944"
       y="1042.6058"
       id="label40"
       sodipodi:linespacing="100%"
       inkscape:label=""><tspan
         sodipodi:role="line"
         id="tspan3851-5-5-2"
         x="81.267944"
         y="1042.6058" /><tspan
         sodipodi:role="line"
         x="81.267944"
         y="1044.6058"
         id="tspan3853-8-1-6">ordentlich</tspan></text>
    <text
       xml:space="preserve"
       style="font-size:2px;font-style:normal;font-variant:normal;font-weight:normal;font-stretch:normal;text-align:center;line-height:100%;letter-spacing:0px;word-spacing:0px;writing-mode:lr-tb;text-anchor:middle;fill:#000000;fill-opacity:1;stroke:none;display:inline;font-family:Sans;-inkscape-font-specification:Sans"
       x="101.4683"
       y="1042.4182"
       id="label50"
       sodipodi:linespacing="100%"
       inkscape:label=""><tspan
         sodipodi:role="line"
         id="tspan3851-5-5-2-6"
         x="101.4683"
         y="1042.4182" /><tspan
         sodipodi:role="line"
         x="101.4683"
         y="1044.4182"
         id="tspan3853-8-1-6-0">gut</tspan></text>
    <text
       xml:space="preserve"
       style="font-size:2px;font-style:normal;font-variant:normal;font-weight:normal;font-stretch:normal;text-align:center;line-height:100%;letter-spacing:0px;word-spacing:0px;writing-mode:lr-tb;text-anchor:middle;fill:#000000;fill-opacity:1;stroke:none;display:inline;font-family:Sans;-inkscape-font-specification:Sans"
       x="121.25037"
       y="1042.5182"
       id="label60"
       sodipodi:linespacing="100%"
       inkscape:label=""
       inkscape:transform-center-x="0.81249996"
       inkscape:transform-center-y="2.0624999"><tspan
         sodipodi:role="line"
         id="tspan3851-5-5-2-1"
         x="121.25037"
         y="1042.5182" /><tspan
         sodipodi:role="line"
         x="121.25037"
         y="1044.5182"
         id="tspan3853-8-1-6-04">ausgezeichnet</tspan></text>
    <text
       xml:space="preserve"
       style="font-size:2px;font-style:normal;font-variant:normal;font-weight:normal;font-stretch:normal;text-align:center;line-height:100%;letter-spacing:0px;word-spacing:0px;writing-mode:lr-tb;text-anchor:middle;fill:#000000;fill-opacity:1;stroke:none;display:inline;font-family:Sans;-inkscape-font-specification:Sans"
       x="141.63435"
       y="1042.5059"
       id="label70"
       sodipodi:linespacing="100%"
       inkscape:label=""
       inkscape:transform-center-x="0.81249996"
       inkscape:transform-center-y="2.0624999"><tspan
         sodipodi:role="line"
         id="tspan3851-5-5-2-1-6"
         x="141.63435"
         y="1042.5059" /><tspan
         sodipodi:role="line"
         x="141.63435"
         y="1044.5059"
         id="tspan3853-8-1-6-04-3">ideal</tspan></text>
  </g>
  <g
     inkscape:groupmode="layer"
     id="layer3"
     inkscape:label="ClickPosition"
     transform="translate(7.8951471,6.3219508)"
     style="display:inline">
    <path
       sodipodi:type="arc"
       style="opacity:0;fill:#000000;fill-opacity:0.45871558"
       id="12"
       sodipodi:cx="0.1875"
       sodipodi:cy="2.9611573"
       sodipodi:rx="1.59375"
       sodipodi:ry="3.6328125"
       d="m 1.78125,2.9611573 c 0,2.006347 -0.7135462,3.6328125 -1.59375,3.6328125 -0.88020382,0 -1.59375,-1.6264655 -1.59375,-3.6328125 0,-2.00634692 0.71354618,-3.63281248 1.59375,-3.63281248 0.8802038,0 1.59375,1.62646556 1.59375,3.63281248 z"
       transform="matrix(0.62745098,0,0,0.68817204,5.3372074,-0.46569083)"
       inkscape:label="" />
    <path
       sodipodi:type="arc"
       style="opacity:0;fill:#000000;fill-opacity:0.45871558"
       id="13"
       sodipodi:cx="0.1875"
       sodipodi:cy="2.9611573"
       sodipodi:rx="1.59375"
       sodipodi:ry="3.6328125"
       d="m 1.78125,2.9611573 c 0,2.006347 -0.7135462,3.6328125 -1.59375,3.6328125 -0.88020382,0 -1.59375,-1.6264655 -1.59375,-3.6328125 0,-2.00634692 0.71354618,-3.63281248 1.59375,-3.63281248 0.8802038,0 1.59375,1.62646556 1.59375,3.63281248 z"
       transform="matrix(0.59607843,0,0,0.68817204,7.3930898,-0.46569085)"
       inkscape:label="" />
    <path
       sodipodi:type="arc"
       style="opacity:0;fill:#000000;fill-opacity:0.45871558"
       id="14"
       sodipodi:cx="0.1875"
       sodipodi:cy="2.9611573"
       sodipodi:rx="1.59375"
       sodipodi:ry="3.6328125"
       d="m 1.78125,2.9611573 c 0,2.006347 -0.7135462,3.6328125 -1.59375,3.6328125 -0.88020382,0 -1.59375,-1.6264655 -1.59375,-3.6328125 0,-2.00634692 0.71354618,-3.63281248 1.59375,-3.63281248 0.8802038,0 1.59375,1.62646556 1.59375,3.63281248 z"
       transform="matrix(0.59607843,0,0,0.68817204,9.3930898,-0.46569085)"
       inkscape:label="" />
    <path
       sodipodi:type="arc"
       style="opacity:0;fill:#000000;fill-opacity:0.45871558"
       id="15"
       sodipodi:cx="0.1875"
       sodipodi:cy="2.9611573"
       sodipodi:rx="1.59375"
       sodipodi:ry="3.6328125"
       d="m 1.78125,2.9611573 c 0,2.006347 -0.7135462,3.6328125 -1.59375,3.6328125 -0.88020382,0 -1.59375,-1.6264655 -1.59375,-3.6328125 0,-2.00634692 0.71354618,-3.63281248 1.59375,-3.63281248 0.8802038,0 1.59375,1.62646556 1.59375,3.63281248 z"
       transform="matrix(0.59607843,0,0,0.68817204,11.39309,-0.46569083)"
       inkscape:label="" />
    <path
       sodipodi:type="arc"
       style="opacity:0;fill:#000000;fill-opacity:0.45871558"
       id="16"
       sodipodi:cx="0.1875"
       sodipodi:cy="2.9611573"
       sodipodi:rx="1.59375"
       sodipodi:ry="3.6328125"
       d="m 1.78125,2.9611573 c 0,2.006347 -0.7135462,3.6328125 -1.59375,3.6328125 -0.88020382,0 -1.59375,-1.6264655 -1.59375,-3.6328125 0,-2.00634692 0.71354618,-3.63281248 1.59375,-3.63281248 0.8802038,0 1.59375,1.62646556 1.59375,3.63281248 z"
       transform="matrix(0.59607843,0,0,0.68817204,13.39309,-0.46569083)"
       inkscape:label="" />
    <path
       sodipodi:type="arc"
       style="opacity:0;fill:#000000;fill-opacity:0.45871558"
       id="17"
       sodipodi:cx="0.1875"
       sodipodi:cy="2.9611573"
       sodipodi:rx="1.59375"
       sodipodi:ry="3.6328125"
       d="m 1.78125,2.9611573 c 0,2.006347 -0.7135462,3.6328125 -1.59375,3.6328125 -0.88020382,0 -1.59375,-1.6264655 -1.59375,-3.6328125 0,-2.00634692 0.71354618,-3.63281248 1.59375,-3.63281248 0.8802038,0 1.59375,1.62646556 1.59375,3.63281248 z"
       transform="matrix(0.59607843,0,0,0.68817204,15.39309,-0.46569083)"
       inkscape:label="" />
    <path
       sodipodi:type="arc"
       style="opacity:0;fill:#000000;fill-opacity:0.45871558"
       id="18"
       sodipodi:cx="0.1875"
       sodipodi:cy="2.9611573"
       sodipodi:rx="1.59375"
       sodipodi:ry="3.6328125"
       d="m 1.78125,2.9611573 c 0,2.006347 -0.7135462,3.6328125 -1.59375,3.6328125 -0.88020382,0 -1.59375,-1.6264655 -1.59375,-3.6328125 0,-2.00634692 0.71354618,-3.63281248 1.59375,-3.63281248 0.8802038,0 1.59375,1.62646556 1.59375,3.63281248 z"
       transform="matrix(0.59607843,0,0,0.68817204,17.39309,-0.46569083)"
       inkscape:label="" />
    <path
       sodipodi:type="arc"
       style="opacity:0;fill:#000000;fill-opacity:0.45871558"
       id="19"
       sodipodi:cx="0.1875"
       sodipodi:cy="2.9611573"
       sodipodi:rx="1.59375"
       sodipodi:ry="3.6328125"
       d="m 1.78125,2.9611573 c 0,2.006347 -0.7135462,3.6328125 -1.59375,3.6328125 -0.88020382,0 -1.59375,-1.6264655 -1.59375,-3.6328125 0,-2.00634692 0.71354618,-3.63281248 1.59375,-3.63281248 0.8802038,0 1.59375,1.62646556 1.59375,3.63281248 z"
       transform="matrix(0.59607843,0,0,0.68817204,19.39309,-0.46569083)"
       inkscape:label="" />
    <path
       sodipodi:type="arc"
       style="opacity:0;fill:#000000;fill-opacity:0.45871558"
       id="20"
       sodipodi:cx="0.1875"
       sodipodi:cy="2.9611573"
       sodipodi:rx="1.59375"
       sodipodi:ry="3.6328125"
       d="m 1.78125,2.9611573 c 0,2.006347 -0.7135462,3.6328125 -1.59375,3.6328125 -0.88020382,0 -1.59375,-1.6264655 -1.59375,-3.6328125 0,-2.00634692 0.71354618,-3.63281248 1.59375,-3.63281248 0.8802038,0 1.59375,1.62646556 1.59375,3.63281248 z"
       transform="matrix(0.59607843,0,0,0.68817204,21.29309,-0.46569083)"
       inkscape:label="" />
    <path
       sodipodi:type="arc"
       style="opacity:0;fill:#000000;fill-opacity:0.45871558"
       id="22"
       sodipodi:cx="0.1875"
       sodipodi:cy="2.9611573"
       sodipodi:rx="1.59375"
       sodipodi:ry="3.6328125"
       d="m 1.78125,2.9611573 c 0,2.006347 -0.7135462,3.6328125 -1.59375,3.6328125 -0.88020382,0 -1.59375,-1.6264655 -1.59375,-3.6328125 0,-2.00634692 0.71354618,-3.63281248 1.59375,-3.63281248 0.8802038,0 1.59375,1.62646556 1.59375,3.63281248 z"
       transform="matrix(0.62745098,0,0,0.68817204,25.337207,-0.46569083)"
       inkscape:label="" />
    <path
       sodipodi:type="arc"
       style="opacity:0;fill:#000000;fill-opacity:0.45871558"
       id="23"
       sodipodi:cx="0.1875"
       sodipodi:cy="2.9611573"
       sodipodi:rx="1.59375"
       sodipodi:ry="3.6328125"
       d="m 1.78125,2.9611573 c 0,2.006347 -0.7135462,3.6328125 -1.59375,3.6328125 -0.88020382,0 -1.59375,-1.6264655 -1.59375,-3.6328125 0,-2.00634692 0.71354618,-3.63281248 1.59375,-3.63281248 0.8802038,0 1.59375,1.62646556 1.59375,3.63281248 z"
       transform="matrix(0.59607843,0,0,0.68817204,27.393089,-0.46569083)"
       inkscape:label="" />
    <path
       sodipodi:type="arc"
       style="opacity:0;fill:#000000;fill-opacity:0.45871558"
       id="24"
       sodipodi:cx="0.1875"
       sodipodi:cy="2.9611573"
       sodipodi:rx="1.59375"
       sodipodi:ry="3.6328125"
       d="m 1.78125,2.9611573 c 0,2.006347 -0.7135462,3.6328125 -1.59375,3.6328125 -0.88020382,0 -1.59375,-1.6264655 -1.59375,-3.6328125 0,-2.00634692 0.71354618,-3.63281248 1.59375,-3.63281248 0.8802038,0 1.59375,1.62646556 1.59375,3.63281248 z"
       transform="matrix(0.59607843,0,0,0.68817204,29.393089,-0.46569083)"
       inkscape:label="" />
    <path
       sodipodi:type="arc"
       style="opacity:0;fill:#000000;fill-opacity:0.45871558"
       id="25"
       sodipodi:cx="0.1875"
       sodipodi:cy="2.9611573"
       sodipodi:rx="1.59375"
       sodipodi:ry="3.6328125"
       d="m 1.78125,2.9611573 c 0,2.006347 -0.7135462,3.6328125 -1.59375,3.6328125 -0.88020382,0 -1.59375,-1.6264655 -1.59375,-3.6328125 0,-2.00634692 0.71354618,-3.63281248 1.59375,-3.63281248 0.8802038,0 1.59375,1.62646556 1.59375,3.63281248 z"
       transform="matrix(0.59607843,0,0,0.68817204,31.393089,-0.46569083)"
       inkscape:label="" />
    <path
       sodipodi:type="arc"
       style="opacity:0;fill:#000000;fill-opacity:0.45871558"
       id="26"
       sodipodi:cx="0.1875"
       sodipodi:cy="2.9611573"
       sodipodi:rx="1.59375"
       sodipodi:ry="3.6328125"
       d="m 1.78125,2.9611573 c 0,2.006347 -0.7135462,3.6328125 -1.59375,3.6328125 -0.88020382,0 -1.59375,-1.6264655 -1.59375,-3.6328125 0,-2.00634692 0.71354618,-3.63281248 1.59375,-3.63281248 0.8802038,0 1.59375,1.62646556 1.59375,3.63281248 z"
       transform="matrix(0.59607843,0,0,0.68817204,33.393089,-0.46569083)"
       inkscape:label="" />
    <path
       sodipodi:type="arc"
       style="opacity:0;fill:#000000;fill-opacity:0.45871558"
       id="27"
       sodipodi:cx="0.1875"
       sodipodi:cy="2.9611573"
       sodipodi:rx="1.59375"
       sodipodi:ry="3.6328125"
       d="m 1.78125,2.9611573 c 0,2.006347 -0.7135462,3.6328125 -1.59375,3.6328125 -0.88020382,0 -1.59375,-1.6264655 -1.59375,-3.6328125 0,-2.00634692 0.71354618,-3.63281248 1.59375,-3.63281248 0.8802038,0 1.59375,1.62646556 1.59375,3.63281248 z"
       transform="matrix(0.59607843,0,0,0.68817204,35.39309,-0.46569083)"
       inkscape:label="" />
    <path
       sodipodi:type="arc"
       style="opacity:0;fill:#000000;fill-opacity:0.45871558"
       id="28"
       sodipodi:cx="0.1875"
       sodipodi:cy="2.9611573"
       sodipodi:rx="1.59375"
       sodipodi:ry="3.6328125"
       d="m 1.78125,2.9611573 c 0,2.006347 -0.7135462,3.6328125 -1.59375,3.6328125 -0.88020382,0 -1.59375,-1.6264655 -1.59375,-3.6328125 0,-2.00634692 0.71354618,-3.63281248 1.59375,-3.63281248 0.8802038,0 1.59375,1.62646556 1.59375,3.63281248 z"
       transform="matrix(0.59607843,0,0,0.68817204,37.39309,-0.46569083)"
       inkscape:label="" />
    <path
       sodipodi:type="arc"
       style="opacity:0;fill:#000000;fill-opacity:0.45871558"
       id="29"
       sodipodi:cx="0.1875"
       sodipodi:cy="2.9611573"
       sodipodi:rx="1.59375"
       sodipodi:ry="3.6328125"
       d="m 1.78125,2.9611573 c 0,2.006347 -0.7135462,3.6328125 -1.59375,3.6328125 -0.88020382,0 -1.59375,-1.6264655 -1.59375,-3.6328125 0,-2.00634692 0.71354618,-3.63281248 1.59375,-3.63281248 0.8802038,0 1.59375,1.62646556 1.59375,3.63281248 z"
       transform="matrix(0.59607843,0,0,0.68817204,39.39309,-0.46569083)"
       inkscape:label="" />
    <path
       sodipodi:type="arc"
       style="opacity:0;fill:#000000;fill-opacity:0.45871558"
       id="30"
       sodipodi:cx="0.1875"
       sodipodi:cy="2.9611573"
       sodipodi:rx="1.59375"
       sodipodi:ry="3.6328125"
       d="m 1.78125,2.9611573 c 0,2.006347 -0.7135462,3.6328125 -1.59375,3.6328125 -0.88020382,0 -1.59375,-1.6264655 -1.59375,-3.6328125 0,-2.00634692 0.71354618,-3.63281248 1.59375,-3.63281248 0.8802038,0 1.59375,1.62646556 1.59375,3.63281248 z"
       transform="matrix(0.59607843,0,0,0.68817204,41.29309,-0.46569083)"
       inkscape:label="" />
    <path
       sodipodi:type="arc"
       style="opacity:0;fill:#000000;fill-opacity:0.45871558"
       id="21"
       sodipodi:cx="0.1875"
       sodipodi:cy="2.9611573"
       sodipodi:rx="1.59375"
       sodipodi:ry="3.6328125"
       d="m 1.78125,2.9611573 c 0,2.006347 -0.7135462,3.6328125 -1.59375,3.6328125 -0.88020382,0 -1.59375,-1.6264655 -1.59375,-3.6328125 0,-2.00634692 0.71354618,-3.63281248 1.59375,-3.63281248 0.8802038,0 1.59375,1.62646556 1.59375,3.63281248 z"
       transform="matrix(0.59607843,0,0,0.68817204,23.24309,-0.46569083)"
       inkscape:label="" />
    <path
       sodipodi:type="arc"
       style="opacity:0;fill:#000000;fill-opacity:0.45871558"
       id="32"
       sodipodi:cx="0.1875"
       sodipodi:cy="2.9611573"
       sodipodi:rx="1.59375"
       sodipodi:ry="3.6328125"
       d="m 1.78125,2.9611573 c 0,2.006347 -0.7135462,3.6328125 -1.59375,3.6328125 -0.88020382,0 -1.59375,-1.6264655 -1.59375,-3.6328125 0,-2.00634692 0.71354618,-3.63281248 1.59375,-3.63281248 0.8802038,0 1.59375,1.62646556 1.59375,3.63281248 z"
       transform="matrix(0.62745098,0,0,0.68817204,45.337207,-0.46569083)"
       inkscape:label="" />
    <path
       sodipodi:type="arc"
       style="opacity:0;fill:#000000;fill-opacity:0.45871558"
       id="33"
       sodipodi:cx="0.1875"
       sodipodi:cy="2.9611573"
       sodipodi:rx="1.59375"
       sodipodi:ry="3.6328125"
       d="m 1.78125,2.9611573 c 0,2.006347 -0.7135462,3.6328125 -1.59375,3.6328125 -0.88020382,0 -1.59375,-1.6264655 -1.59375,-3.6328125 0,-2.00634692 0.71354618,-3.63281248 1.59375,-3.63281248 0.8802038,0 1.59375,1.62646556 1.59375,3.63281248 z"
       transform="matrix(0.59607843,0,0,0.68817204,47.393089,-0.46569083)"
       inkscape:label="" />
    <path
       sodipodi:type="arc"
       style="opacity:0;fill:#000000;fill-opacity:0.45871558"
       id="34"
       sodipodi:cx="0.1875"
       sodipodi:cy="2.9611573"
       sodipodi:rx="1.59375"
       sodipodi:ry="3.6328125"
       d="m 1.78125,2.9611573 c 0,2.006347 -0.7135462,3.6328125 -1.59375,3.6328125 -0.88020382,0 -1.59375,-1.6264655 -1.59375,-3.6328125 0,-2.00634692 0.71354618,-3.63281248 1.59375,-3.63281248 0.8802038,0 1.59375,1.62646556 1.59375,3.63281248 z"
       transform="matrix(0.59607843,0,0,0.68817204,49.393089,-0.46569083)"
       inkscape:label="" />
    <path
       sodipodi:type="arc"
       style="opacity:0;fill:#000000;fill-opacity:0.45871558"
       id="35"
       sodipodi:cx="0.1875"
       sodipodi:cy="2.9611573"
       sodipodi:rx="1.59375"
       sodipodi:ry="3.6328125"
       d="m 1.78125,2.9611573 c 0,2.006347 -0.7135462,3.6328125 -1.59375,3.6328125 -0.88020382,0 -1.59375,-1.6264655 -1.59375,-3.6328125 0,-2.00634692 0.71354618,-3.63281248 1.59375,-3.63281248 0.8802038,0 1.59375,1.62646556 1.59375,3.63281248 z"
       transform="matrix(0.59607843,0,0,0.68817204,51.393089,-0.46569083)"
       inkscape:label="" />
    <path
       sodipodi:type="arc"
       style="opacity:0;fill:#000000;fill-opacity:0.45871558"
       id="36"
       sodipodi:cx="0.1875"
       sodipodi:cy="2.9611573"
       sodipodi:rx="1.59375"
       sodipodi:ry="3.6328125"
       d="m 1.78125,2.9611573 c 0,2.006347 -0.7135462,3.6328125 -1.59375,3.6328125 -0.88020382,0 -1.59375,-1.6264655 -1.59375,-3.6328125 0,-2.00634692 0.71354618,-3.63281248 1.59375,-3.63281248 0.8802038,0 1.59375,1.62646556 1.59375,3.63281248 z"
       transform="matrix(0.59607843,0,0,0.68817204,53.393089,-0.46569083)"
       inkscape:label="" />
    <path
       sodipodi:type="arc"
       style="opacity:0;fill:#000000;fill-opacity:0.45871558"
       id="37"
       sodipodi:cx="0.1875"
       sodipodi:cy="2.9611573"
       sodipodi:rx="1.59375"
       sodipodi:ry="3.6328125"
       d="m 1.78125,2.9611573 c 0,2.006347 -0.7135462,3.6328125 -1.59375,3.6328125 -0.88020382,0 -1.59375,-1.6264655 -1.59375,-3.6328125 0,-2.00634692 0.71354618,-3.63281248 1.59375,-3.63281248 0.8802038,0 1.59375,1.62646556 1.59375,3.63281248 z"
       transform="matrix(0.59607843,0,0,0.68817204,55.39309,-0.46569083)"
       inkscape:label="" />
    <path
       sodipodi:type="arc"
       style="opacity:0;fill:#000000;fill-opacity:0.45871558"
       id="38"
       sodipodi:cx="0.1875"
       sodipodi:cy="2.9611573"
       sodipodi:rx="1.59375"
       sodipodi:ry="3.6328125"
       d="m 1.78125,2.9611573 c 0,2.006347 -0.7135462,3.6328125 -1.59375,3.6328125 -0.88020382,0 -1.59375,-1.6264655 -1.59375,-3.6328125 0,-2.00634692 0.71354618,-3.63281248 1.59375,-3.63281248 0.8802038,0 1.59375,1.62646556 1.59375,3.63281248 z"
       transform="matrix(0.59607843,0,0,0.68817204,57.39309,-0.46569083)"
       inkscape:label="" />
    <path
       sodipodi:type="arc"
       style="opacity:0;fill:#000000;fill-opacity:0.45871558"
       id="39"
       sodipodi:cx="0.1875"
       sodipodi:cy="2.9611573"
       sodipodi:rx="1.59375"
       sodipodi:ry="3.6328125"
       d="m 1.78125,2.9611573 c 0,2.006347 -0.7135462,3.6328125 -1.59375,3.6328125 -0.88020382,0 -1.59375,-1.6264655 -1.59375,-3.6328125 0,-2.00634692 0.71354618,-3.63281248 1.59375,-3.63281248 0.8802038,0 1.59375,1.62646556 1.59375,3.63281248 z"
       transform="matrix(0.59607843,0,0,0.68817204,59.39309,-0.46569083)"
       inkscape:label="" />
    <path
       sodipodi:type="arc"
       style="opacity:0;fill:#000000;fill-opacity:0.45871558"
       id="40"
       sodipodi:cx="0.1875"
       sodipodi:cy="2.9611573"
       sodipodi:rx="1.59375"
       sodipodi:ry="3.6328125"
       d="m 1.78125,2.9611573 c 0,2.006347 -0.7135462,3.6328125 -1.59375,3.6328125 -0.88020382,0 -1.59375,-1.6264655 -1.59375,-3.6328125 0,-2.00634692 0.71354618,-3.63281248 1.59375,-3.63281248 0.8802038,0 1.59375,1.62646556 1.59375,3.63281248 z"
       transform="matrix(0.59607843,0,0,0.68817204,61.29309,-0.46569083)"
       inkscape:label="" />
    <path
       sodipodi:type="arc"
       style="opacity:0;fill:#000000;fill-opacity:0.45871558"
       id="31"
       sodipodi:cx="0.1875"
       sodipodi:cy="2.9611573"
       sodipodi:rx="1.59375"
       sodipodi:ry="3.6328125"
       d="m 1.78125,2.9611573 c 0,2.006347 -0.7135462,3.6328125 -1.59375,3.6328125 -0.88020382,0 -1.59375,-1.6264655 -1.59375,-3.6328125 0,-2.00634692 0.71354618,-3.63281248 1.59375,-3.63281248 0.8802038,0 1.59375,1.62646556 1.59375,3.63281248 z"
       transform="matrix(0.59607843,0,0,0.68817204,43.24309,-0.46569083)"
       inkscape:label="" />
    <path
       sodipodi:type="arc"
       style="opacity:0;fill:#000000;fill-opacity:0.45871558"
       id="42"
       sodipodi:cx="0.1875"
       sodipodi:cy="2.9611573"
       sodipodi:rx="1.59375"
       sodipodi:ry="3.6328125"
       d="m 1.78125,2.9611573 c 0,2.006347 -0.7135462,3.6328125 -1.59375,3.6328125 -0.88020382,0 -1.59375,-1.6264655 -1.59375,-3.6328125 0,-2.00634692 0.71354618,-3.63281248 1.59375,-3.63281248 0.8802038,0 1.59375,1.62646556 1.59375,3.63281248 z"
       transform="matrix(0.62745098,0,0,0.68817204,65.337207,-0.46569083)"
       inkscape:label="" />
    <path
       sodipodi:type="arc"
       style="opacity:0;fill:#000000;fill-opacity:0.45871558"
       id="43"
       sodipodi:cx="0.1875"
       sodipodi:cy="2.9611573"
       sodipodi:rx="1.59375"
       sodipodi:ry="3.6328125"
       d="m 1.78125,2.9611573 c 0,2.006347 -0.7135462,3.6328125 -1.59375,3.6328125 -0.88020382,0 -1.59375,-1.6264655 -1.59375,-3.6328125 0,-2.00634692 0.71354618,-3.63281248 1.59375,-3.63281248 0.8802038,0 1.59375,1.62646556 1.59375,3.63281248 z"
       transform="matrix(0.59607843,0,0,0.68817204,67.393089,-0.46569083)"
       inkscape:label="" />
    <path
       sodipodi:type="arc"
       style="opacity:0;fill:#000000;fill-opacity:0.45871558"
       id="44"
       sodipodi:cx="0.1875"
       sodipodi:cy="2.9611573"
       sodipodi:rx="1.59375"
       sodipodi:ry="3.6328125"
       d="m 1.78125,2.9611573 c 0,2.006347 -0.7135462,3.6328125 -1.59375,3.6328125 -0.88020382,0 -1.59375,-1.6264655 -1.59375,-3.6328125 0,-2.00634692 0.71354618,-3.63281248 1.59375,-3.63281248 0.8802038,0 1.59375,1.62646556 1.59375,3.63281248 z"
       transform="matrix(0.59607843,0,0,0.68817204,69.393089,-0.46569083)"
       inkscape:label="" />
    <path
       sodipodi:type="arc"
       style="opacity:0;fill:#000000;fill-opacity:0.45871558"
       id="45"
       sodipodi:cx="0.1875"
       sodipodi:cy="2.9611573"
       sodipodi:rx="1.59375"
       sodipodi:ry="3.6328125"
       d="m 1.78125,2.9611573 c 0,2.006347 -0.7135462,3.6328125 -1.59375,3.6328125 -0.88020382,0 -1.59375,-1.6264655 -1.59375,-3.6328125 0,-2.00634692 0.71354618,-3.63281248 1.59375,-3.63281248 0.8802038,0 1.59375,1.62646556 1.59375,3.63281248 z"
       transform="matrix(0.59607843,0,0,0.68817204,71.393089,-0.46569083)"
       inkscape:label="" />
    <path
       sodipodi:type="arc"
       style="opacity:0;fill:#000000;fill-opacity:0.45871558"
       id="46"
       sodipodi:cx="0.1875"
       sodipodi:cy="2.9611573"
       sodipodi:rx="1.59375"
       sodipodi:ry="3.6328125"
       d="m 1.78125,2.9611573 c 0,2.006347 -0.7135462,3.6328125 -1.59375,3.6328125 -0.88020382,0 -1.59375,-1.6264655 -1.59375,-3.6328125 0,-2.00634692 0.71354618,-3.63281248 1.59375,-3.63281248 0.8802038,0 1.59375,1.62646556 1.59375,3.63281248 z"
       transform="matrix(0.59607843,0,0,0.68817204,73.393089,-0.46569083)"
       inkscape:label="" />
    <path
       sodipodi:type="arc"
       style="opacity:0;fill:#000000;fill-opacity:0.45871558"
       id="47"
       sodipodi:cx="0.1875"
       sodipodi:cy="2.9611573"
       sodipodi:rx="1.59375"
       sodipodi:ry="3.6328125"
       d="m 1.78125,2.9611573 c 0,2.006347 -0.7135462,3.6328125 -1.59375,3.6328125 -0.88020382,0 -1.59375,-1.6264655 -1.59375,-3.6328125 0,-2.00634692 0.71354618,-3.63281248 1.59375,-3.63281248 0.8802038,0 1.59375,1.62646556 1.59375,3.63281248 z"
       transform="matrix(0.59607843,0,0,0.68817204,75.39309,-0.46569083)"
       inkscape:label="" />
    <path
       sodipodi:type="arc"
       style="opacity:0;fill:#000000;fill-opacity:0.45871558"
       id="48"
       sodipodi:cx="0.1875"
       sodipodi:cy="2.9611573"
       sodipodi:rx="1.59375"
       sodipodi:ry="3.6328125"
       d="m 1.78125,2.9611573 c 0,2.006347 -0.7135462,3.6328125 -1.59375,3.6328125 -0.88020382,0 -1.59375,-1.6264655 -1.59375,-3.6328125 0,-2.00634692 0.71354618,-3.63281248 1.59375,-3.63281248 0.8802038,0 1.59375,1.62646556 1.59375,3.63281248 z"
       transform="matrix(0.59607843,0,0,0.68817204,77.39309,-0.46569083)"
       inkscape:label="" />
    <path
       sodipodi:type="arc"
       style="opacity:0;fill:#000000;fill-opacity:0.45871558"
       id="49"
       sodipodi:cx="0.1875"
       sodipodi:cy="2.9611573"
       sodipodi:rx="1.59375"
       sodipodi:ry="3.6328125"
       d="m 1.78125,2.9611573 c 0,2.006347 -0.7135462,3.6328125 -1.59375,3.6328125 -0.88020382,0 -1.59375,-1.6264655 -1.59375,-3.6328125 0,-2.00634692 0.71354618,-3.63281248 1.59375,-3.63281248 0.8802038,0 1.59375,1.62646556 1.59375,3.63281248 z"
       transform="matrix(0.59607843,0,0,0.68817204,79.39309,-0.46569083)"
       inkscape:label="" />
    <path
       sodipodi:type="arc"
       style="opacity:0;fill:#000000;fill-opacity:0.45871558"
       id="50"
       sodipodi:cx="0.1875"
       sodipodi:cy="2.9611573"
       sodipodi:rx="1.59375"
       sodipodi:ry="3.6328125"
       d="m 1.78125,2.9611573 c 0,2.006347 -0.7135462,3.6328125 -1.59375,3.6328125 -0.88020382,0 -1.59375,-1.6264655 -1.59375,-3.6328125 0,-2.00634692 0.71354618,-3.63281248 1.59375,-3.63281248 0.8802038,0 1.59375,1.62646556 1.59375,3.63281248 z"
       transform="matrix(0.59607843,0,0,0.68817204,81.29309,-0.46569083)"
       inkscape:label="" />
    <path
       sodipodi:type="arc"
       style="opacity:0;fill:#000000;fill-opacity:0.45871558"
       id="41"
       sodipodi:cx="0.1875"
       sodipodi:cy="2.9611573"
       sodipodi:rx="1.59375"
       sodipodi:ry="3.6328125"
       d="m 1.78125,2.9611573 c 0,2.006347 -0.7135462,3.6328125 -1.59375,3.6328125 -0.88020382,0 -1.59375,-1.6264655 -1.59375,-3.6328125 0,-2.00634692 0.71354618,-3.63281248 1.59375,-3.63281248 0.8802038,0 1.59375,1.62646556 1.59375,3.63281248 z"
       transform="matrix(0.59607843,0,0,0.68817204,63.24309,-0.46569083)"
       inkscape:label="" />
    <path
       sodipodi:type="arc"
       style="opacity:0;fill:#000000;fill-opacity:0.45871558"
       id="52"
       sodipodi:cx="0.1875"
       sodipodi:cy="2.9611573"
       sodipodi:rx="1.59375"
       sodipodi:ry="3.6328125"
       d="m 1.78125,2.9611573 c 0,2.006347 -0.7135462,3.6328125 -1.59375,3.6328125 -0.88020382,0 -1.59375,-1.6264655 -1.59375,-3.6328125 0,-2.00634692 0.71354618,-3.63281248 1.59375,-3.63281248 0.8802038,0 1.59375,1.62646556 1.59375,3.63281248 z"
       transform="matrix(0.62745098,0,0,0.68817204,85.337207,-0.46569083)"
       inkscape:label="" />
    <path
       sodipodi:type="arc"
       style="opacity:0;fill:#000000;fill-opacity:0.45871558"
       id="53"
       sodipodi:cx="0.1875"
       sodipodi:cy="2.9611573"
       sodipodi:rx="1.59375"
       sodipodi:ry="3.6328125"
       d="m 1.78125,2.9611573 c 0,2.006347 -0.7135462,3.6328125 -1.59375,3.6328125 -0.88020382,0 -1.59375,-1.6264655 -1.59375,-3.6328125 0,-2.00634692 0.71354618,-3.63281248 1.59375,-3.63281248 0.8802038,0 1.59375,1.62646556 1.59375,3.63281248 z"
       transform="matrix(0.59607843,0,0,0.68817204,87.393089,-0.46569083)"
       inkscape:label="" />
    <path
       sodipodi:type="arc"
       style="opacity:0;fill:#000000;fill-opacity:0.45871558"
       id="54"
       sodipodi:cx="0.1875"
       sodipodi:cy="2.9611573"
       sodipodi:rx="1.59375"
       sodipodi:ry="3.6328125"
       d="m 1.78125,2.9611573 c 0,2.006347 -0.7135462,3.6328125 -1.59375,3.6328125 -0.88020382,0 -1.59375,-1.6264655 -1.59375,-3.6328125 0,-2.00634692 0.71354618,-3.63281248 1.59375,-3.63281248 0.8802038,0 1.59375,1.62646556 1.59375,3.63281248 z"
       transform="matrix(0.59607843,0,0,0.68817204,89.393089,-0.46569083)"
       inkscape:label="" />
    <path
       sodipodi:type="arc"
       style="opacity:0;fill:#000000;fill-opacity:0.45871558"
       id="55"
       sodipodi:cx="0.1875"
       sodipodi:cy="2.9611573"
       sodipodi:rx="1.59375"
       sodipodi:ry="3.6328125"
       d="m 1.78125,2.9611573 c 0,2.006347 -0.7135462,3.6328125 -1.59375,3.6328125 -0.88020382,0 -1.59375,-1.6264655 -1.59375,-3.6328125 0,-2.00634692 0.71354618,-3.63281248 1.59375,-3.63281248 0.8802038,0 1.59375,1.62646556 1.59375,3.63281248 z"
       transform="matrix(0.59607843,0,0,0.68817204,91.393089,-0.46569083)"
       inkscape:label="" />
    <path
       sodipodi:type="arc"
       style="opacity:0;fill:#000000;fill-opacity:0.45871558"
       id="56"
       sodipodi:cx="0.1875"
       sodipodi:cy="2.9611573"
       sodipodi:rx="1.59375"
       sodipodi:ry="3.6328125"
       d="m 1.78125,2.9611573 c 0,2.006347 -0.7135462,3.6328125 -1.59375,3.6328125 -0.88020382,0 -1.59375,-1.6264655 -1.59375,-3.6328125 0,-2.00634692 0.71354618,-3.63281248 1.59375,-3.63281248 0.8802038,0 1.59375,1.62646556 1.59375,3.63281248 z"
       transform="matrix(0.59607843,0,0,0.68817204,93.393089,-0.46569083)"
       inkscape:label="" />
    <path
       sodipodi:type="arc"
       style="opacity:0;fill:#000000;fill-opacity:0.45871558"
       id="57"
       sodipodi:cx="0.1875"
       sodipodi:cy="2.9611573"
       sodipodi:rx="1.59375"
       sodipodi:ry="3.6328125"
       d="m 1.78125,2.9611573 c 0,2.006347 -0.7135462,3.6328125 -1.59375,3.6328125 -0.88020382,0 -1.59375,-1.6264655 -1.59375,-3.6328125 0,-2.00634692 0.71354618,-3.63281248 1.59375,-3.63281248 0.8802038,0 1.59375,1.62646556 1.59375,3.63281248 z"
       transform="matrix(0.59607843,0,0,0.68817204,95.39309,-0.46569083)"
       inkscape:label="" />
    <path
       sodipodi:type="arc"
       style="opacity:0;fill:#000000;fill-opacity:0.45871558"
       id="58"
       sodipodi:cx="0.1875"
       sodipodi:cy="2.9611573"
       sodipodi:rx="1.59375"
       sodipodi:ry="3.6328125"
       d="m 1.78125,2.9611573 c 0,2.006347 -0.7135462,3.6328125 -1.59375,3.6328125 -0.88020382,0 -1.59375,-1.6264655 -1.59375,-3.6328125 0,-2.00634692 0.71354618,-3.63281248 1.59375,-3.63281248 0.8802038,0 1.59375,1.62646556 1.59375,3.63281248 z"
       transform="matrix(0.59607843,0,0,0.68817204,97.39309,-0.46569083)"
       inkscape:label="" />
    <path
       sodipodi:type="arc"
       style="opacity:0;fill:#000000;fill-opacity:0.45871558"
       id="59"
       sodipodi:cx="0.1875"
       sodipodi:cy="2.9611573"
       sodipodi:rx="1.59375"
       sodipodi:ry="3.6328125"
       d="m 1.78125,2.9611573 c 0,2.006347 -0.7135462,3.6328125 -1.59375,3.6328125 -0.88020382,0 -1.59375,-1.6264655 -1.59375,-3.6328125 0,-2.00634692 0.71354618,-3.63281248 1.59375,-3.63281248 0.8802038,0 1.59375,1.62646556 1.59375,3.63281248 z"
       transform="matrix(0.59607843,0,0,0.68817204,99.39309,-0.46569083)"
       inkscape:label="" />
    <path
       sodipodi:type="arc"
       style="opacity:0;fill:#000000;fill-opacity:0.45871558"
       id="60"
       sodipodi:cx="0.1875"
       sodipodi:cy="2.9611573"
       sodipodi:rx="1.59375"
       sodipodi:ry="3.6328125"
       d="m 1.78125,2.9611573 c 0,2.006347 -0.7135462,3.6328125 -1.59375,3.6328125 -0.88020382,0 -1.59375,-1.6264655 -1.59375,-3.6328125 0,-2.00634692 0.71354618,-3.63281248 1.59375,-3.63281248 0.8802038,0 1.59375,1.62646556 1.59375,3.63281248 z"
       transform="matrix(0.59607843,0,0,0.68817204,101.29309,-0.46569083)"
       inkscape:label="" />
    <path
       sodipodi:type="arc"
       style="opacity:0;fill:#000000;fill-opacity:0.45871558"
       id="51"
       sodipodi:cx="0.1875"
       sodipodi:cy="2.9611573"
       sodipodi:rx="1.59375"
       sodipodi:ry="3.6328125"
       d="m 1.78125,2.9611573 c 0,2.006347 -0.7135462,3.6328125 -1.59375,3.6328125 -0.88020382,0 -1.59375,-1.6264655 -1.59375,-3.6328125 0,-2.00634692 0.71354618,-3.63281248 1.59375,-3.63281248 0.8802038,0 1.59375,1.62646556 1.59375,3.63281248 z"
       transform="matrix(0.59607843,0,0,0.68817204,83.24309,-0.46569083)"
       inkscape:label="" />
    <path
       sodipodi:type="arc"
       style="opacity:0;fill:#000000;fill-opacity:0.45871558"
       id="62"
       sodipodi:cx="0.1875"
       sodipodi:cy="2.9611573"
       sodipodi:rx="1.59375"
       sodipodi:ry="3.6328125"
       d="m 1.78125,2.9611573 c 0,2.006347 -0.7135462,3.6328125 -1.59375,3.6328125 -0.88020382,0 -1.59375,-1.6264655 -1.59375,-3.6328125 0,-2.00634692 0.71354618,-3.63281248 1.59375,-3.63281248 0.8802038,0 1.59375,1.62646556 1.59375,3.63281248 z"
       transform="matrix(0.62745098,0,0,0.68817204,105.38721,-0.46569083)"
       inkscape:label="" />
    <path
       sodipodi:type="arc"
       style="opacity:0;fill:#000000;fill-opacity:0.45871558"
       id="63"
       sodipodi:cx="0.1875"
       sodipodi:cy="2.9611573"
       sodipodi:rx="1.59375"
       sodipodi:ry="3.6328125"
       d="m 1.78125,2.9611573 c 0,2.006347 -0.7135462,3.6328125 -1.59375,3.6328125 -0.88020382,0 -1.59375,-1.6264655 -1.59375,-3.6328125 0,-2.00634692 0.71354618,-3.63281248 1.59375,-3.63281248 0.8802038,0 1.59375,1.62646556 1.59375,3.63281248 z"
       transform="matrix(0.59607843,0,0,0.68817204,107.44309,-0.46569083)"
       inkscape:label="" />
    <path
       sodipodi:type="arc"
       style="opacity:0;fill:#000000;fill-opacity:0.45871558"
       id="64"
       sodipodi:cx="0.1875"
       sodipodi:cy="2.9611573"
       sodipodi:rx="1.59375"
       sodipodi:ry="3.6328125"
       d="m 1.78125,2.9611573 c 0,2.006347 -0.7135462,3.6328125 -1.59375,3.6328125 -0.88020382,0 -1.59375,-1.6264655 -1.59375,-3.6328125 0,-2.00634692 0.71354618,-3.63281248 1.59375,-3.63281248 0.8802038,0 1.59375,1.62646556 1.59375,3.63281248 z"
       transform="matrix(0.59607843,0,0,0.68817204,109.44309,-0.46569083)"
       inkscape:label="" />
    <path
       sodipodi:type="arc"
       style="opacity:0;fill:#000000;fill-opacity:0.45871558"
       id="65"
       sodipodi:cx="0.1875"
       sodipodi:cy="2.9611573"
       sodipodi:rx="1.59375"
       sodipodi:ry="3.6328125"
       d="m 1.78125,2.9611573 c 0,2.006347 -0.7135462,3.6328125 -1.59375,3.6328125 -0.88020382,0 -1.59375,-1.6264655 -1.59375,-3.6328125 0,-2.00634692 0.71354618,-3.63281248 1.59375,-3.63281248 0.8802038,0 1.59375,1.62646556 1.59375,3.63281248 z"
       transform="matrix(0.59607843,0,0,0.68817204,111.44309,-0.46569083)"
       inkscape:label="" />
    <path
       sodipodi:type="arc"
       style="opacity:0;fill:#000000;fill-opacity:0.45871558"
       id="66"
       sodipodi:cx="0.1875"
       sodipodi:cy="2.9611573"
       sodipodi:rx="1.59375"
       sodipodi:ry="3.6328125"
       d="m 1.78125,2.9611573 c 0,2.006347 -0.7135462,3.6328125 -1.59375,3.6328125 -0.88020382,0 -1.59375,-1.6264655 -1.59375,-3.6328125 0,-2.00634692 0.71354618,-3.63281248 1.59375,-3.63281248 0.8802038,0 1.59375,1.62646556 1.59375,3.63281248 z"
       transform="matrix(0.59607843,0,0,0.68817204,113.44309,-0.46569083)"
       inkscape:label="" />
    <path
       sodipodi:type="arc"
       style="opacity:0;fill:#000000;fill-opacity:0.45871558"
       id="67"
       sodipodi:cx="0.1875"
       sodipodi:cy="2.9611573"
       sodipodi:rx="1.59375"
       sodipodi:ry="3.6328125"
       d="m 1.78125,2.9611573 c 0,2.006347 -0.7135462,3.6328125 -1.59375,3.6328125 -0.88020382,0 -1.59375,-1.6264655 -1.59375,-3.6328125 0,-2.00634692 0.71354618,-3.63281248 1.59375,-3.63281248 0.8802038,0 1.59375,1.62646556 1.59375,3.63281248 z"
       transform="matrix(0.59607843,0,0,0.68817204,115.44309,-0.46569083)"
       inkscape:label="" />
    <path
       sodipodi:type="arc"
       style="opacity:0;fill:#000000;fill-opacity:0.45871558"
       id="68"
       sodipodi:cx="0.1875"
       sodipodi:cy="2.9611573"
       sodipodi:rx="1.59375"
       sodipodi:ry="3.6328125"
       d="m 1.78125,2.9611573 c 0,2.006347 -0.7135462,3.6328125 -1.59375,3.6328125 -0.88020382,0 -1.59375,-1.6264655 -1.59375,-3.6328125 0,-2.00634692 0.71354618,-3.63281248 1.59375,-3.63281248 0.8802038,0 1.59375,1.62646556 1.59375,3.63281248 z"
       transform="matrix(0.59607843,0,0,0.68817204,117.44309,-0.46569083)"
       inkscape:label="" />
    <path
       sodipodi:type="arc"
       style="opacity:0;fill:#000000;fill-opacity:0.45871558"
       id="69"
       sodipodi:cx="0.1875"
       sodipodi:cy="2.9611573"
       sodipodi:rx="1.59375"
       sodipodi:ry="3.6328125"
       d="m 1.78125,2.9611573 c 0,2.006347 -0.7135462,3.6328125 -1.59375,3.6328125 -0.88020382,0 -1.59375,-1.6264655 -1.59375,-3.6328125 0,-2.00634692 0.71354618,-3.63281248 1.59375,-3.63281248 0.8802038,0 1.59375,1.62646556 1.59375,3.63281248 z"
       transform="matrix(0.59607843,0,0,0.68817204,119.44309,-0.46569083)"
       inkscape:label="" />
    <path
       sodipodi:type="arc"
       style="opacity:0;fill:#000000;fill-opacity:0.45871558"
       id="70"
       sodipodi:cx="0.1875"
       sodipodi:cy="2.9611573"
       sodipodi:rx="1.59375"
       sodipodi:ry="3.6328125"
       d="m 1.78125,2.9611573 c 0,2.006347 -0.7135462,3.6328125 -1.59375,3.6328125 -0.88020382,0 -1.59375,-1.6264655 -1.59375,-3.6328125 0,-2.00634692 0.71354618,-3.63281248 1.59375,-3.63281248 0.8802038,0 1.59375,1.62646556 1.59375,3.63281248 z"
       transform="matrix(0.59607843,0,0,0.68817204,121.44309,-0.46569083)"
       inkscape:label="" />
    <path
       sodipodi:type="arc"
       style="opacity:0;fill:#000000;fill-opacity:0.45871558"
       id="61"
       sodipodi:cx="0.1875"
       sodipodi:cy="2.9611573"
       sodipodi:rx="1.59375"
       sodipodi:ry="3.6328125"
       d="m 1.78125,2.9611573 c 0,2.006347 -0.7135462,3.6328125 -1.59375,3.6328125 -0.88020382,0 -1.59375,-1.6264655 -1.59375,-3.6328125 0,-2.00634692 0.71354618,-3.63281248 1.59375,-3.63281248 0.8802038,0 1.59375,1.62646556 1.59375,3.63281248 z"
       transform="matrix(0.59607843,0,0,0.68817204,103.29309,-0.46569083)"
       inkscape:label="" />
    <path
       sodipodi:type="arc"
       style="opacity:0;fill:#000000;fill-opacity:0.45871558"
       id="11"
       sodipodi:cx="0.1875"
       sodipodi:cy="2.9611573"
       sodipodi:rx="1.59375"
       sodipodi:ry="3.6328125"
       d="m 1.78125,2.9611573 c 0,2.006347 -0.7135462,3.6328125 -1.59375,3.6328125 -0.88020382,0 -1.59375,-1.6264655 -1.59375,-3.6328125 0,-2.00634692 0.71354618,-3.63281248 1.59375,-3.63281248 0.8802038,0 1.59375,1.62646556 1.59375,3.63281248 z"
       transform="matrix(0.59607843,0,0,0.68817204,3.2930898,-0.46569083)"
       inkscape:label="" />
    <path
       sodipodi:type="arc"
       style="opacity:0;fill:#000000;fill-opacity:0.45871558"
       id="10"
       sodipodi:cx="0.1875"
       sodipodi:cy="2.9611573"
       sodipodi:rx="1.59375"
       sodipodi:ry="3.6328125"
       d="m 1.78125,2.9611573 c 0,2.006347 -0.7135462,3.6328125 -1.59375,3.6328125 -0.88020382,0 -1.59375,-1.6264655 -1.59375,-3.6328125 0,-2.00634692 0.71354618,-3.63281248 1.59375,-3.63281248 0.8802038,0 1.59375,1.62646556 1.59375,3.63281248 z"
       transform="matrix(0.59607843,0,0,0.68817204,1.2930898,-0.46569083)"
       inkscape:label="" />
  </g>
  <g
     inkscape:groupmode="layer"
     id="layer4"
     inkscape:label="Cross"
     style="display:inline"
     transform="translate(7.0000016,5.4565456)" />
</svg>
